<svg width="18" height="20" fill="none" xmlns="http://www.w3.org/2000/svg"><path d="M10.007 1.7a.5.5 0 00-.68-.733l.68.733zm-.68 17.333a.5.5 0 10.68-.733l-.68.733zM17.34 1.7a.5.5 0 10-.68-.733l.68.733zm-.68 17.333a.5.5 0 00.68-.733l-.68.733zm-8.204-8.3l-.34.366.34-.366zM1.122 9.267l-.34-.366.34.366zm8.204-8.3L.782 8.901l.68.733L10.007 1.7l-.68-.733zM.782 11.099l8.544 7.934.68-.733-8.544-7.934-.68.733zM16.66.967L8.115 8.901l.68.733L17.34 1.7l-.68-.733zM8.115 11.099l8.544 7.934.68-.733-8.543-7.934-.68.733zm0-2.198a1.5 1.5 0 000 2.198l.68-.733a.5.5 0 010-.732l-.68-.733zm-7.333 0a1.5 1.5 0 000 2.198l.68-.733a.5.5 0 010-.732L.782 8.9z" fill="#010409"/></svg>