<svg width="24" height="24" fill="none" xmlns="http://www.w3.org/2000/svg"><path fill-rule="evenodd" clip-rule="evenodd" d="M5.317 8.3H1.125a.825.825 0 00-.825.825v.702c0 4.663 1.086 9.263 3.17 13.433.135.27.41.44.711.44h15.635c.302 0 .577-.17.712-.44a30.038 30.038 0 003.17-13.433v-.702a.825.825 0 00-.824-.825h-4.192L14.028.543l-.857.514L17.517 8.3H6.483l4.346-7.243L9.97.543 5.317 8.3zM1.3 9.3v.527c0 4.466 1.03 8.871 3.01 12.873h15.38A29.037 29.037 0 0022.7 9.827V9.3H1.3z" fill="#010409"/></svg>