<svg width="24" height="22" fill="none" xmlns="http://www.w3.org/2000/svg"><path d="M12 20.6l-.354.354a.5.5 0 00.707 0L12 20.6zm-9.543-9.543l-.354.353.354-.353zm8-8l-.354.353.354-.353zM12 4.6l-.354.354a.5.5 0 00.707 0L12 4.6zm1.543-1.543l-.354-.354.354.354zm-1.19 17.19L2.81 10.703l-.707.707 9.543 9.544.707-.707zm8.836-9.544l-9.543 9.544.707.707 9.543-9.544-.707-.707zM10.103 3.41l1.543 1.544.707-.708-1.543-1.543-.707.707zm2.25 1.544l1.543-1.544-.707-.707-1.543 1.543.707.708zM17.543.9a6.157 6.157 0 00-4.354 1.803l.707.707a5.157 5.157 0 013.647-1.51v-1zM22.7 7.057c0 1.368-.543 2.68-1.51 3.646l.706.707A6.157 6.157 0 0023.7 7.057h-1zm1 0C23.7 3.657 20.943.9 17.543.9v1A5.157 5.157 0 0122.7 7.057h1zM6.457 1.9c1.367 0 2.679.543 3.646 1.51l.707-.707A6.157 6.157 0 006.457.9v1zM1.3 7.057A5.157 5.157 0 016.457 1.9v-1A6.157 6.157 0 00.3 7.057h1zm1.51 3.646A5.157 5.157 0 011.3 7.057h-1c0 1.633.648 3.199 1.803 4.353l.707-.707z" fill="#010409"/></svg>