<svg width="40" height="40" fill="none" xmlns="http://www.w3.org/2000/svg"><path d="M9.334 14.667l-.422-.269-.078.123v.146h.5zm7.194-11.305l.421.269-.421-.269zm7.111 4.027l-.447-.224.447.224zm-3.638 7.278l-.448-.224a.5.5 0 00.448.724v-.5zM38.667 28l.4.3.1-.133V28h-.5zm-6.4 8.533l.4.3-.4-.3zM22.085 2.05l.257-.428-.257.428zM.834 13.333V40h1V13.333h-1zm8.922 1.602l7.193-11.304-.843-.537-7.194 11.304.844.537zm13.436-7.77l-3.639 7.278.895.447 3.639-7.277-.895-.448zm-3.191 8.002h13.333v-1H20.001v1zM38.167 20v8h1v-8h-1zm.1 7.7l-6.4 8.533.8.6 6.4-8.533-.8-.6zM28.001 38.167H14.667v1h13.334v-1zM9.834 33.333V14.667h-1v18.666h1zm23.5-18.166A4.833 4.833 0 0138.167 20h1a5.833 5.833 0 00-5.833-5.833v1zm-18.667 23a4.833 4.833 0 01-4.833-4.834h-1a5.833 5.833 0 005.833 5.834v-1zm7.16-35.688a3.592 3.592 0 011.365 4.686l.895.448a4.592 4.592 0 00-1.745-5.991l-.514.857zm10.04 33.754a4.833 4.833 0 01-3.866 1.934v1a5.833 5.833 0 004.666-2.334l-.8-.6zM16.95 3.631a3.592 3.592 0 014.879-1.152l.514-.857a4.592 4.592 0 00-6.236 1.472l.843.537z" fill="#FEFEFE"/></svg>