<svg width="40" height="40" fill="none" xmlns="http://www.w3.org/2000/svg"><path d="M36 20H4m32 0a2.667 2.667 0 002.666-2.666v-2.667A2.667 2.667 0 0036 12H4a2.667 2.667 0 00-2.667 2.667v2.667A2.667 2.667 0 004 20m32 0v13.334a5.333 5.333 0 01-5.334 5.333H9.333A5.333 5.333 0 014 33.333V20m16-8V9.334M20 12h-8.762a4.571 4.571 0 01-4.572-4.57v-.762A5.333 5.333 0 0112 1.334a8 8 0 018 8M20 12h8.762a4.571 4.571 0 004.571-4.571v-.762A5.333 5.333 0 0028 1.334a8 8 0 00-8 8M20 12v26.667" stroke="#FEFEFE"/></svg>