<svg width="40" height="40" fill="none" xmlns="http://www.w3.org/2000/svg"><path d="M13.334 14.667h2.667m8 10.667h2.666m0-12L13.334 26.666m4.804-24.562l-3.01 3.01a2.634 2.634 0 01-1.864.772H8.522a2.634 2.634 0 00-2.634 2.635v4.742c0 .699-.278 1.369-.772 1.863l-3.01 3.01a2.634 2.634 0 000 3.726l3.01 3.01c.494.495.772 1.165.772 1.863v4.742a2.634 2.634 0 002.634 2.635h4.742c.699 0 1.37.278 1.863.772l3.01 3.01a2.634 2.634 0 003.726 0l3.011-3.01a2.634 2.634 0 011.863-.772h4.742a2.634 2.634 0 002.634-2.634v-4.742c0-.7.278-1.37.772-1.863l3.01-3.011a2.634 2.634 0 000-3.726l-3.01-3.01a2.635 2.635 0 01-.772-1.863V8.522a2.634 2.634 0 00-2.634-2.635h-4.742a2.634 2.634 0 01-1.863-.771l-3.01-3.01a2.634 2.634 0 00-3.726 0z" stroke="#FEFEFE"/></svg>