<svg width="24" height="20" fill="none" xmlns="http://www.w3.org/2000/svg"><path fill-rule="evenodd" clip-rule="evenodd" d="M2.472 1.13a45.47 45.47 0 0119.055 0A2.749 2.749 0 0123.7 3.818v12.364a2.749 2.749 0 01-2.173 2.688 45.47 45.47 0 01-19.055 0A2.748 2.748 0 01.3 16.182V3.818A2.75 2.75 0 012.472 1.13zm18.846.978a44.47 44.47 0 00-18.636 0A1.749 1.749 0 001.3 3.818v12.364c0 .825.576 1.537 1.382 1.71a44.47 44.47 0 0018.636 0 1.748 1.748 0 001.382-1.71V3.818c0-.825-.576-1.537-1.382-1.71zM10.164 6.359a.5.5 0 01.513.025l4.8 3.2a.5.5 0 010 .832l-4.8 3.2A.5.5 0 019.9 13.2V6.8a.5.5 0 01.264-.44zm.736 1.375v4.532L14.298 10 10.9 7.734z" fill="#010409"/></svg>