<svg width="181" height="72" fill="none" xmlns="http://www.w3.org/2000/svg"><path d="M3.636 32.68c0 1.656 1.332 2.808 3.996 3.456 2.472.528 4.14 1.02 5.004 1.476 1.536.84 2.304 2.064 2.304 3.672 0 1.464-.6 2.688-1.8 3.672-1.176.96-2.7 1.44-4.572 1.44-3.552 0-5.808-1.308-6.768-3.924l1.044-.612c.768 2.208 2.676 3.312 5.724 3.312 1.464 0 2.676-.36 3.636-1.08.96-.72 1.44-1.656 1.44-2.808 0-1.752-1.332-2.916-3.996-3.492a19.499 19.499 0 01-.972-.216c-.504-.12-.852-.204-1.044-.252a36.83 36.83 0 00-.972-.252 73.919 73.919 0 01-1.008-.324c-.192-.096-.48-.228-.864-.396a4.818 4.818 0 01-.828-.468 8.913 8.913 0 00-.648-.576 2.82 2.82 0 01-.54-.72 7.218 7.218 0 01-.324-.864 4.97 4.97 0 01-.108-1.044c0-1.44.552-2.64 1.656-3.6 1.128-.984 2.604-1.476 4.428-1.476 1.416 0 2.64.324 3.672.972 1.056.624 1.812 1.476 2.268 2.556l-1.044.612a4.339 4.339 0 00-1.872-2.16c-.864-.504-1.872-.756-3.024-.756-1.392 0-2.544.36-3.456 1.08-.888.696-1.332 1.62-1.332 2.772zm23.302-5.076c2.64 0 4.776.936 6.408 2.808 1.656 1.872 2.484 4.092 2.484 6.66 0 .336-.012.54-.036.612h-16.74c.144 2.208.972 4.02 2.484 5.436 1.512 1.368 3.372 2.052 5.58 2.052 1.488 0 2.82-.312 3.996-.936 1.176-.624 2.052-1.476 2.628-2.556l1.116.648c-.72 1.248-1.764 2.244-3.132 2.988-1.368.72-2.904 1.08-4.608 1.08-2.736 0-4.98-.876-6.732-2.628-1.752-1.752-2.628-4.008-2.628-6.768 0-2.664.864-4.896 2.592-6.696 1.728-1.8 3.924-2.7 6.588-2.7zm0 1.224c-2.208 0-4.056.72-5.544 2.16-1.488 1.416-2.28 3.252-2.376 5.508h15.516c-.168-2.328-.972-4.188-2.412-5.58-1.392-1.392-3.12-2.088-5.184-2.088zm29.763 3.996V28h1.26v18h-1.26v-4.824c-.72 1.584-1.824 2.856-3.312 3.816-1.464.936-3.096 1.404-4.896 1.404-2.592 0-4.8-.9-6.624-2.7-1.824-1.824-2.736-4.056-2.736-6.696 0-2.64.912-4.86 2.736-6.66 1.824-1.824 4.032-2.736 6.624-2.736 1.8 0 3.432.48 4.896 1.44a8.568 8.568 0 013.312 3.78zM42.733 42.832c1.608 1.56 3.54 2.34 5.796 2.34 2.256 0 4.188-.78 5.796-2.34 1.584-1.584 2.376-3.528 2.376-5.832 0-2.328-.792-4.26-2.376-5.796-1.584-1.584-3.516-2.376-5.796-2.376-2.28 0-4.212.792-5.796 2.376-1.56 1.56-2.34 3.492-2.34 5.796 0 2.28.78 4.224 2.34 5.832zM130.472 28h9.684v18h-1.26V29.188h-8.424V46h-1.26V29.188h-3.204V28h3.204v-1.188c0-4.272 2.268-6.408 6.804-6.408 1.128 0 2.316.132 3.564.396v1.152a18.926 18.926 0 00-3.564-.324c-1.944 0-3.36.42-4.248 1.26-.864.816-1.296 2.124-1.296 3.924V28zm16.34 4.68c0 1.656 1.332 2.808 3.996 3.456 2.472.528 4.14 1.02 5.004 1.476 1.536.84 2.304 2.064 2.304 3.672 0 1.464-.6 2.688-1.8 3.672-1.176.96-2.7 1.44-4.572 1.44-3.552 0-5.808-1.308-6.768-3.924l1.044-.612c.768 2.208 2.676 3.312 5.724 3.312 1.464 0 2.676-.36 3.636-1.08.96-.72 1.44-1.656 1.44-2.808 0-1.752-1.332-2.916-3.996-3.492a19.499 19.499 0 01-.972-.216c-.504-.12-.852-.204-1.044-.252a36.83 36.83 0 00-.972-.252 73.919 73.919 0 01-1.008-.324c-.192-.096-.48-.228-.864-.396a4.818 4.818 0 01-.828-.468 8.913 8.913 0 00-.648-.576 2.82 2.82 0 01-.54-.72 7.218 7.218 0 01-.324-.864 4.97 4.97 0 01-.108-1.044c0-1.44.552-2.64 1.656-3.6 1.128-.984 2.604-1.476 4.428-1.476 1.416 0 2.64.324 3.672.972 1.056.624 1.812 1.476 2.268 2.556l-1.044.612a4.339 4.339 0 00-1.872-2.16c-.864-.504-1.872-.756-3.024-.756-1.392 0-2.544.36-3.456 1.08-.888.696-1.332 1.62-1.332 2.772zm23.87-5.076c2.064 0 3.732.648 5.004 1.944 1.272 1.32 1.908 3.036 1.908 5.148V46h-1.26V34.696c0-1.752-.516-3.168-1.548-4.248s-2.436-1.62-4.212-1.62c-1.992 0-3.612.684-4.86 2.052-1.224 1.344-1.836 3.192-1.836 5.544V46h-1.296V20.8h1.296v11.196c1.272-2.928 3.54-4.392 6.804-4.392z" fill="#266EDB"/><path d="M71.16 29.03s.285 1.225.742 1.868C72.257 31.4 73.038 32 73.038 32s-.404-1.917.346-2.682c.6-.613 1.251-.67 2.124-.67.872 0 2.124.67 2.124.67s-2.615-1.867-3.853-3.449c-.8-1.022-1.21-1.645-1.729-2.825-.556-1.265-.786-2.034-.938-3.4-.177-1.585-.187-2.548.296-4.072.524-1.652 1.095-2.594 2.288-3.88 1.34-1.443 2.322-2.18 4.167-2.934 1.579-.646 2.65-.788 4.363-.753 1.256.026 3.161.575 3.161.575s.426 1.088.544 1.82c.118.74.049 1.915.049 1.915M71.16 26.588s.345-1.58.89-2.443c.577-.913 1.1-1.233 2.025-1.82 1.285-.814 2.15-1.163 3.557-1.82 1.158-.54 1.86-.75 2.964-1.389 1.325-.766 2.122-1.192 3.161-2.299.757-.805 1.63-2.299 1.63-2.299m.485-1.524l-.146.847M71.112 27.395v.918m33.771 30.461s-1.163 1.862-2.297 2.666c-.883.627-2.542 1.176-2.542 1.176s1.752-2.94.902-4.63c-.681-1.355-1.755-1.82-3.237-2.316-1.483-.496-3.982-.099-3.982-.099s5.481-1.6 8.463-3.51c1.927-1.236 2.969-2.033 4.507-3.69 1.648-1.774 2.681-2.873 3.7-5.046 1.18-2.519 1.468-4.716 1.493-7.51.027-3.03-.361-4.628-1.674-7.43-1.475-3.148-2.753-5.055-5.469-7.352-2.325-1.965-3.972-2.5-6.903-3.416-2.148-.671-5.777-.735-5.777-.735s-1.33 1.557-1.934 2.7c-.612 1.155-1.148 3.138-1.148 3.138m17.255 32.016s.293-2.808-.155-4.543c-.473-1.838-1.184-2.665-2.43-4.16-1.731-2.076-3.007-3.144-5.033-5.03-1.668-1.552-2.744-2.297-4.265-3.98-1.826-2.02-2.944-3.178-4.096-5.597-.838-1.761-1.493-4.727-1.493-4.727m.006-2.77l-.066 1.715m17.11 30.624l-.372 1.109M78.33 67.638s.834 1.264 1.597 1.802c.594.42 1.68.778 1.68.778s-1.262-1.996-.802-3.164c.369-.936 1.031-1.267 1.954-1.624.922-.356 2.537-.112 2.537-.112s-3.578-1.035-5.575-2.312c-1.29-.825-1.995-1.36-3.058-2.478-1.139-1.198-1.717-1.971-2.473-3.45-.878-1.713-1.308-2.794-1.46-4.709-.166-2.076-.117-3.447.584-5.383.788-2.173 1.53-3.36 3.152-4.965 1.388-1.374 2.578-1.939 4.404-2.6 1.339-.483 3.593-.643 3.593-.643s.924 1.053 1.367 1.829c.447.785.886 2.139.886 2.139m-9.45 22.14s-.324-1.922-.124-3.117c.213-1.265.627-1.84 1.349-2.878 1.003-1.443 1.766-2.19 2.967-3.505.989-1.082 1.64-1.605 2.528-2.776 1.067-1.405 1.724-2.211 2.341-3.882.45-1.217.722-3.257.722-3.257m-.097-1.922l.096 1.08M77.61 65.931l.293.756" stroke="#266EDB" stroke-linecap="round" stroke-linejoin="round"/><circle cx="89" cy="3" r="2.5" stroke="#0B2D65"/><circle cx="93.5" cy="9.5" r="2" stroke="#266EDB"/><circle cx="83" cy="11" r="1" fill="#266EDB"/><circle cx="94" cy="22" r="1" fill="#266EDB"/><circle cx="83" cy="42" r="1" fill="#266EDB"/><circle cx="94" cy="66" r="1.5" stroke="#0B2D65"/><circle cx="88.5" cy="70.5" r="1" stroke="#DB2626"/></svg>