<svg width="990" height="592" fill="none" xmlns="http://www.w3.org/2000/svg"><path d="M32.403 191.421S6.803 150.35 1.91 120.05c-3.807-23.587 1.51-61.862 1.51-61.862s41.221 63.18 83.08 62.616c33.54-.451 53.253-17.298 77.57-41.967C188.387 54.167 204.92.672 204.92.672s-21.791 124.342-12.982 202.036c5.693 50.21 11.339 78.625 29.181 125.164 19.116 49.862 30.85 81.008 64.019 122.215 38.454 47.774 67.078 74.481 122.261 101.935 59.863 29.782 107.568 37.718 176.01 38.681 76.864 1.08 127.204-5.914 199.308-37.713 61.707-27.214 88.409-54.777 135.216-104.175 34.306-36.205 71.029-107.689 71.029-107.689s-17.933-41.443-34.687-64.491c-16.947-23.312-51.081-53.107-51.081-53.107M99.286 257.352s52.856 32.924 91.67 40.787c41.107 8.327 64.456 2.18 106.291-8.148 58.096-14.342 91.765-29.395 148.978-51.451 47.096-18.156 72.389-32.346 120.652-46.323 57.938-16.779 91.816-27.807 151.077-27.349 43.148.334 108.39 15.955 108.39 15.955m54.932 26.868l-33.404-17.879m-774.88 44.374l-18.36-18.098" stroke="#D7D8DA" stroke-width=".6" stroke-linecap="round" stroke-linejoin="round"/></svg>